<svg xmlns="http://www.w3.org/2000/svg" viewBox="0 0 64 64" role="img" aria-label="LIVV BITES">
  <rect width="64" height="64" rx="16" fill="#22402f"/>
  <g fill="none" stroke="#d8c79a" stroke-width="2.1" stroke-linecap="round" stroke-linejoin="round"
     transform="translate(14,7) scale(0.69)">
    <path d="M18 50 V22"/>
    <path d="M18 22 C15.5 18.5 15.5 14.5 18 11 C20.5 14.5 20.5 18.5 18 22 Z"/>
    <path d="M18 28 C14 26 11.5 24 10 20.5"/>
    <path d="M18 28 C22 26 24.5 24 26 20.5"/>
    <path d="M18 35 C14 33 11.5 31 10 27.5"/>
    <path d="M18 35 C22 33 24.5 31 26 27.5"/>
    <path d="M18 42 C14.5 40 12.5 38 11 35"/>
    <path d="M18 42 C21.5 40 23.5 38 25 35"/>
  </g>
</svg>
