<svg xmlns="http://www.w3.org/2000/svg" viewBox="0 0 340 152" role="img" aria-label="LIVV BITES Gourmet">
  <style>
    @import url('https://fonts.googleapis.com/css2?family=Cormorant+Garamond:wght@500&family=Inter:wght@600&display=swap');
    .wm{font-family:'Cormorant Garamond',Georgia,serif;font-weight:500;}
    .sub{font-family:'Inter',Helvetica,Arial,sans-serif;font-weight:600;}
  </style>
  <g transform="translate(159,4) scale(0.64)">
    <path d="M18 51 C17.4 43 18 36 18 28 C18 22 18.4 17 18 12" fill="none" stroke="#d8c79a" stroke-width="1.5" stroke-linecap="round"/>
    <g fill="#d8c79a">
      <ellipse cx="11.5" cy="40" rx="2.1" ry="5.2" transform="rotate(-40 11.5 40)"/>
      <ellipse cx="24.5" cy="36" rx="2.1" ry="5.2" transform="rotate(40 24.5 36)"/>
      <ellipse cx="11" cy="30.5" rx="2" ry="5" transform="rotate(-34 11 30.5)"/>
      <ellipse cx="25" cy="26.5" rx="2" ry="5" transform="rotate(34 25 26.5)"/>
      <ellipse cx="12.2" cy="21.5" rx="1.9" ry="4.6" transform="rotate(-29 12.2 21.5)"/>
      <ellipse cx="23.8" cy="18.5" rx="1.9" ry="4.6" transform="rotate(29 23.8 18.5)"/>
      <ellipse cx="18" cy="12.5" rx="1.9" ry="5" transform="rotate(5 18 12.5)"/>
    </g>
    <g fill="#bfa063"><circle cx="15.8" cy="42.5" r="1.5"/><circle cx="20.6" cy="38.5" r="1.5"/></g>
  </g>
  <text class="wm" x="174" y="100" text-anchor="middle" font-size="47" letter-spacing="11" fill="#f4eee0">LIVV BITES</text>
  <text class="sub" x="175" y="128" text-anchor="middle" font-size="12" letter-spacing="11.5" fill="#d8c79a">GOURMET</text>
</svg>
